# Blender 3.6.4
# www.blender.org
mtllib Brown Paper Bag.mtl
o Cube
v 0.606077 2.865810 -1.666002
v 0.679158 -1.000000 -1.721347
v 0.606077 2.865810 1.666002
v 0.679158 -1.000000 1.721347
v -0.606077 2.865810 -1.666002
v -0.679158 -1.000000 -1.721347
v -0.606077 2.865810 1.666002
v -0.679158 -1.000000 1.721347
v 0.679158 2.865810 1.721347
v -0.679158 2.865810 1.721347
v 0.679158 2.865810 -1.721347
v -0.679158 2.865810 -1.721347
v 0.606077 -0.995157 1.666002
v -0.606077 -0.995157 1.666002
v 0.606077 -0.995157 -1.666002
v -0.606077 -0.995157 -1.666002
v -0.679158 -1.000000 -0.604521
v 0.679158 2.865810 -0.604521
v -0.679158 2.865810 -0.604521
v 0.679158 -1.000000 -0.604521
v 0.606077 2.865810 -0.585084
v -0.606077 2.865810 -0.585084
v 0.606077 -0.995157 -0.585084
v -0.606077 -0.995157 -0.585084
v -0.679158 -1.000000 0.589844
v 0.679158 2.865810 0.589844
v 0.606077 2.865810 0.570879
v 0.606077 -0.995157 0.570879
v -0.679158 2.865810 0.589844
v 0.679158 -1.000000 0.589844
v -0.606077 2.865810 0.570879
v -0.606077 -0.995157 0.570879
v -0.679158 2.865810 0.408557
v 0.679158 -1.000000 0.408557
v -0.606077 2.865810 0.395420
v -0.606077 -0.995157 0.395420
v -0.679158 -1.000000 0.408556
v 0.679158 2.865810 0.408556
v 0.606077 2.865810 0.395420
v 0.606077 -0.995157 0.395420
v -0.679158 2.865810 -0.414569
v 0.679158 -1.000000 -0.414569
v -0.606077 2.865810 -0.401240
v -0.606077 -0.995157 -0.401240
v -0.679158 -1.000000 -0.414569
v 0.679158 2.865810 -0.414569
v 0.606077 2.865810 -0.401240
v 0.606077 -0.995157 -0.401240
v -0.679158 3.620634 -0.402768
v -0.679158 3.517221 -0.557356
v -0.606077 3.620634 -0.401240
v -0.606077 3.517221 -0.537919
v 0.606077 3.517221 -0.537919
v 0.679158 3.517221 -0.557356
v 0.679158 3.620634 0.408556
v 0.679158 3.517221 0.541321
v 0.606077 3.620634 0.395420
v 0.606077 3.517221 0.522356
v -0.606077 3.517221 0.522356
v -0.679158 3.517221 0.541321
v -0.679158 3.620634 0.408557
v -0.606077 3.620634 0.395420
v 0.679158 3.620634 -0.402792
v 0.606077 3.620634 -0.401240
v 0.679158 3.404970 0.589844
v 0.606077 3.404970 0.570879
v 0.606077 3.404970 0.395420
v 0.679158 3.404970 0.408556
v 0.679158 3.416951 -0.604521
v 0.679158 3.416951 -0.402792
v 0.606077 3.416951 -0.401240
v 0.606077 3.416951 -0.585084
v -0.679158 3.416951 -0.402768
v -0.679158 3.416951 -0.604521
v -0.606077 3.416951 -0.585084
v -0.606077 3.416951 -0.401240
v -0.679158 3.416951 0.408557
v -0.606077 3.416951 0.395420
v -0.679158 3.416951 0.589844
v -0.606077 3.416951 0.570879
v 0.606076 3.620634 -0.403138
v 0.679157 3.620634 -0.401964
v -0.606078 3.620634 -0.403138
v -0.679159 3.620634 -0.401856
v 0.606076 3.404970 -0.403138
v -0.679159 3.416951 -0.401856
v 0.679157 3.404970 -0.401964
v -0.606078 3.416951 -0.403138
v 0.000000 -1.000000 -1.527541
v 0.000000 2.865810 1.533285
v 0.000000 -1.000000 1.533285
v 0.000000 2.865810 -1.527541
v 0.000000 2.865810 1.477940
v -0.000000 2.865810 -1.472196
v 0.000000 -0.995157 1.477940
v -0.000000 -0.995157 -1.472196
v -0.000000 -0.995157 -0.585084
v 0.000000 -1.000000 -0.604521
v -0.000000 -0.995157 0.570879
v 0.000000 -1.000000 0.589844
v 0.000000 -1.000000 0.408556
v -0.000000 -0.995157 0.395420
v -0.000000 -0.995157 -0.401240
v 0.000000 -1.000000 -0.414569
v 0.606077 3.714955 -0.003859
v 0.606077 3.499291 -0.003859
v 0.679157 3.714955 0.003296
v 0.679157 3.499291 0.003296
v -0.679159 3.511272 0.003350
v -0.606078 3.511272 -0.003859
v -0.606078 3.714955 -0.003859
v -0.679159 3.714955 0.003350
v -0.679159 3.488762 -0.199253
v -0.606078 3.488762 -0.203498
v -0.606078 3.700396 -0.203498
v -0.679159 3.700396 -0.199253
v -0.606078 3.488762 0.195781
v -0.606078 3.700396 0.195781
v -0.679158 3.700396 0.205953
v -0.679158 3.488762 0.205953
v 0.606076 3.700396 -0.203498
v 0.679157 3.700396 -0.199334
v 0.606076 3.476781 -0.203498
v 0.679157 3.476781 -0.199334
v 0.606077 3.476781 0.195781
v 0.679158 3.476781 0.205926
v 0.606077 3.700396 0.195781
v 0.679158 3.700396 0.205926
vn 1.0000 -0.0000 -0.0000
vn 0.2669 -0.0000 0.9637
vn -1.0000 -0.0000 -0.0000
vn -0.0000 -1.0000 -0.0000
vn -0.2744 -0.0000 -0.9616
vn -0.0000 1.0000 -0.0000
vn 0.2964 -0.0000 -0.9551
vn -0.3046 -0.0000 0.9525
vn 0.0135 0.9295 -0.3686
vn -0.2317 0.3860 0.8929
vn 0.0828 0.8126 -0.5770
vn -0.1356 0.7750 0.6172
vn 0.1356 0.7750 0.6172
vn -0.0829 0.8125 -0.5770
vn 0.2340 0.4138 -0.8798
vn -0.0209 -0.0000 0.9998
vn 0.2275 0.4242 0.8765
vn -0.2340 0.4138 -0.8798
vn 0.0212 -0.0000 0.9998
vn -0.2512 -0.0000 0.9679
vn 0.1769 -0.0000 -0.9842
vn 0.1013 -0.0106 0.9948
vn -0.2570 -0.0000 -0.9664
vn -0.1011 -0.0107 0.9948
vn 0.2570 -0.0000 -0.9664
vn 0.2512 -0.0000 0.9679
vn -0.1769 -0.0000 -0.9842
vn -0.0175 -0.0000 -0.9998
vn 0.0161 -0.0000 -0.9999
vn 0.0127 -0.9417 0.3362
vn -0.0123 -0.9417 0.3362
vn -0.0139 0.9295 -0.3686
vn 0.3046 -0.0000 0.9525
vn -0.2964 -0.0000 -0.9551
vn 0.2744 -0.0000 -0.9616
vn -0.2669 -0.0000 0.9637
vn 0.0132 -0.9937 -0.1112
vn -0.0085 0.9974 0.0722
vn 0.0086 0.9974 0.0722
vn -0.0132 -0.9937 -0.1112
vn -0.0057 0.9974 -0.0722
vn 0.0087 -0.9938 0.1112
vn -0.0535 -0.9404 -0.3358
vn 0.0587 0.9280 0.3680
vn -0.0086 -0.9938 0.1112
vn 0.0056 0.9974 -0.0722
vn -0.0586 0.9280 0.3680
vn 0.0535 -0.9404 -0.3358
vt 0.620981 0.166456
vt 0.620981 0.245981
vt 0.375000 0.375000
vt 0.625000 0.375000
vt 0.625000 0.500000
vt 0.375000 0.500000
vt 0.375000 0.668899
vt 0.625000 0.668899
vt 0.625000 0.750000
vt 0.375000 0.750000
vt 0.500000 0.917833
vt 0.625000 0.917833
vt 0.625000 1.000000
vt 0.500000 1.000000
vt 0.125000 0.667833
vt 0.375000 0.667833
vt 0.125000 0.750000
vt 0.625000 0.625000
vt 0.875000 0.625000
vt 0.875000 0.750000
vt 0.500000 0.245981
vt 0.625000 0.250000
vt 0.500000 0.250000
vt 0.379019 0.166456
vt 0.379019 0.245981
vt 0.375000 0.250000
vt 0.375000 0.167833
vt 0.620981 0.082513
vt 0.620981 0.004019
vt 0.625000 0.000000
vt 0.625000 0.081101
vt 0.500000 0.004019
vt 0.379019 0.004019
vt 0.375000 0.000000
vt 0.500000 0.000000
vt 0.500000 0.166456
vt 0.500000 0.245981
vt 0.379019 0.082513
vt 0.379019 0.095863
vt 0.500000 0.082513
vt 0.379019 0.153714
vt 0.375000 0.154668
vt 0.375000 0.154668
vt 0.379019 0.153714
vt 0.375000 0.081101
vt 0.125000 0.500000
vt 0.375000 0.581101
vt 0.125000 0.581101
vt 0.500000 0.750000
vt 0.625000 0.831101
vt 0.500000 0.831101
vt 0.375000 0.655105
vt 0.625000 0.655105
vt 0.625000 0.582167
vt 0.375000 0.582167
vt 0.625000 0.167833
vt 0.379019 0.166456
vt 0.500000 0.153714
vt 0.620981 0.153714
vt 0.375000 0.594895
vt 0.125000 0.654668
vt 0.375000 0.654668
vt 0.500000 0.904668
vt 0.625000 0.904668
vt 0.620981 0.095863
vt 0.500000 0.844895
vt 0.625000 0.844895
vt 0.125000 0.594895
vt 0.375000 0.094895
vt 0.500000 0.095863
vt 0.625000 0.595332
vt 0.375000 0.595332
vt 0.379019 0.153714
vt 0.379019 0.153714
vt 0.379019 0.153714
vt 0.379019 0.166456
vt 0.375000 0.167833
vt 0.625000 0.094895
vt 0.625000 0.154668
vt 0.379019 0.082513
vt 0.379019 0.095863
vt 0.620981 0.082513
vt 0.625000 0.081101
vt 0.620981 0.095863
vt 0.375000 0.081101
vt 0.620981 0.153714
vt 0.625000 0.154668
vt 0.620981 0.153714
vt 0.375000 0.654668
vt 0.375000 0.654668
vt 0.625000 0.595332
vt 0.375000 0.831101
vt 0.375000 0.844895
vt 0.375000 0.904668
vt 0.375000 0.917833
vt 0.875000 0.500000
vt 0.375000 1.000000
vt 0.375000 0.654668
vt 0.379019 0.153714
vt 0.625000 0.154668
vt 0.620981 0.153714
s 0
usemtl Material
f 31/1/1 7/2/1 14/2/1 32/1/1
f 91/3/2 90/4/2 10/5/2 8/6/2
f 17/7/3 19/8/3 12/9/3 6/10/3
f 100/11/4 30/12/4 4/13/4 91/14/4
f 30/15/1 26/16/1 9/10/1 4/17/1
f 89/18/5 92/19/5 11/20/5 2/9/5
f 93/21/6 7/2/6 10/22/6 90/23/6
f 27/24/6 3/25/6 9/26/6 26/27/6
f 22/28/6 5/29/6 12/30/6 19/31/6
f 94/32/6 1/33/6 11/34/6 92/35/6
f 99/36/6 32/1/6 14/2/6 95/37/6
f 93/21/7 3/25/7 13/25/7 95/37/7
f 94/32/8 5/29/8 16/29/8 96/32/8
f 21/38/3 1/33/3 15/33/3 23/38/3
f 47/39/3 21/38/3 23/38/3 48/39/3
f 96/32/6 16/29/6 24/28/6 97/40/6
f 121/41/9 122/42/9 82/43/9 81/44/9
f 1/33/6 21/38/6 18/45/6 11/34/6
f 2/46/1 11/6/1 18/47/1 20/48/1
f 89/49/4 2/9/4 20/50/4 98/51/4
f 45/52/3 41/53/3 19/8/3 17/7/3
f 5/29/1 22/28/1 24/28/1 16/29/1
f 8/6/3 10/5/3 29/54/3 25/55/3
f 7/2/6 31/1/6 29/56/6 10/22/6
f 3/25/3 27/24/3 28/57/3 13/25/3
f 102/58/6 36/59/6 32/1/6 99/36/6
f 70/60/1 69/47/1 54/47/1 63/60/1
f 34/61/1 38/62/1 26/16/1 30/15/1
f 101/63/4 34/64/4 30/12/4 100/11/4
f 35/59/1 31/1/1 32/1/1 36/59/1
f 43/65/1 35/59/1 36/59/1 44/65/1
f 104/66/4 42/67/4 34/64/4 101/63/4
f 42/68/1 46/60/1 38/62/1 34/61/1
f 47/39/6 39/44/6 38/43/6 46/69/6
f 103/70/6 44/65/6 36/59/6 102/58/6
f 25/55/3 29/54/3 33/71/3 37/72/3
f 123/73/3 121/41/3 81/44/3 85/74/3
f 27/24/3 39/44/3 40/75/3 28/57/3
f 97/40/6 24/28/6 44/65/6 103/70/6
f 66/76/10 65/77/10 56/27/10 58/24/10
f 20/48/1 18/47/1 46/60/1 42/68/1
f 98/51/4 20/50/4 42/67/4 104/66/4
f 22/28/1 43/65/1 44/65/1 24/28/1
f 37/72/3 33/71/3 41/53/3 45/52/3
f 35/59/6 43/65/6 41/78/6 33/79/6
f 39/44/3 47/39/3 48/39/3 40/75/3
f 51/65/11 52/28/11 50/31/11 49/78/11
f 57/44/12 58/24/12 56/27/12 55/43/12
f 59/1/13 62/59/13 61/79/13 60/56/13
f 53/38/14 64/39/14 63/69/14 54/45/14
f 74/8/3 73/53/3 49/53/3 50/8/3
f 72/80/3 71/81/3 64/39/3 53/38/3
f 65/16/1 68/62/1 55/62/1 56/16/1
f 77/71/3 79/54/3 60/54/3 61/71/3
f 75/82/15 74/83/15 50/31/15 52/28/15
f 73/78/16 76/84/16 51/65/16 49/78/16
f 79/56/17 80/1/17 59/1/17 60/56/17
f 67/74/3 66/76/3 58/24/3 57/44/3
f 69/85/18 72/80/18 53/38/18 54/45/18
f 80/1/1 78/59/1 62/59/1 59/1/1
f 76/84/1 75/82/1 52/28/1 51/65/1
f 71/81/19 70/69/19 63/69/19 64/39/19
f 39/44/3 27/24/3 66/76/3 67/74/3
f 26/16/1 38/62/1 68/62/1 65/16/1
f 27/24/20 26/27/20 65/77/20 66/76/20
f 38/43/21 39/44/21 67/74/21 68/43/21
f 47/39/22 46/69/22 70/69/22 71/81/22
f 18/45/23 21/38/23 72/80/23 69/85/23
f 21/38/3 47/39/3 71/81/3 72/80/3
f 46/60/1 18/47/1 69/47/1 70/60/1
f 43/65/1 22/28/1 75/82/1 76/84/1
f 41/78/24 43/65/24 76/84/24 73/78/24
f 22/28/25 19/31/25 74/83/25 75/82/25
f 19/8/3 41/53/3 73/53/3 74/8/3
f 31/1/1 35/59/1 78/59/1 80/1/1
f 29/56/26 31/1/26 80/1/26 79/56/26
f 33/71/3 29/54/3 79/54/3 77/71/3
f 35/59/27 33/79/27 77/79/27 78/59/27
f 88/59/28 86/79/28 84/79/28 83/59/28
f 87/43/29 85/74/29 81/44/29 82/43/29
f 114/86/30 113/87/30 86/79/30 88/59/30
f 124/43/31 123/73/31 85/74/31 87/43/31
f 115/88/1 114/86/1 88/59/1 83/59/1
f 122/89/1 124/90/1 87/62/1 82/62/1
f 116/87/32 115/88/32 83/59/32 84/79/32
f 113/91/3 116/91/3 84/71/3 86/71/3
f 17/92/4 98/51/4 104/66/4 45/93/4
f 23/38/6 97/40/6 103/70/6 48/39/6
f 48/39/6 103/70/6 102/58/6 40/75/6
f 45/93/4 104/66/4 101/63/4 37/94/4
f 37/94/4 101/63/4 100/11/4 25/95/4
f 40/75/6 102/58/6 99/36/6 28/57/6
f 6/10/4 89/49/4 98/51/4 17/92/4
f 15/33/6 96/32/6 97/40/6 23/38/6
f 1/33/33 94/32/33 96/32/33 15/33/33
f 7/2/34 93/21/34 95/37/34 14/2/34
f 28/57/6 99/36/6 95/37/6 13/25/6
f 5/29/6 94/32/6 92/35/6 12/30/6
f 3/25/6 93/21/6 90/23/6 9/26/6
f 6/5/35 12/96/35 92/19/35 89/18/35
f 25/95/4 100/11/4 91/14/4 8/97/4
f 4/26/36 9/22/36 90/4/36 91/3/36
f 128/62/1 126/98/1 108/89/1 107/89/1
f 126/43/37 125/74/37 106/74/37 108/43/37
f 125/74/3 127/99/3 105/41/3 106/74/3
f 127/99/38 128/43/38 107/43/38 105/41/38
f 120/91/3 119/91/3 112/71/3 109/71/3
f 119/100/39 118/86/39 111/59/39 112/87/39
f 118/86/1 117/101/1 110/88/1 111/59/1
f 117/101/40 120/100/40 109/87/40 110/88/40
f 109/71/3 112/71/3 116/91/3 113/91/3
f 112/87/41 111/59/41 115/88/41 116/87/41
f 111/59/1 110/88/1 114/86/1 115/88/1
f 110/88/42 109/87/42 113/87/42 114/86/42
f 78/59/43 77/79/43 120/100/43 117/101/43
f 62/59/1 78/59/1 117/101/1 118/86/1
f 61/79/44 62/59/44 118/86/44 119/100/44
f 77/71/3 61/71/3 119/91/3 120/91/3
f 107/89/1 108/89/1 124/90/1 122/89/1
f 108/43/45 106/74/45 123/73/45 124/43/45
f 106/74/3 105/41/3 121/41/3 123/73/3
f 105/41/46 107/43/46 122/42/46 121/41/46
f 57/44/47 55/43/47 128/43/47 127/99/47
f 67/74/3 57/44/3 127/99/3 125/74/3
f 68/43/48 67/74/48 125/74/48 126/43/48
f 55/62/1 68/62/1 126/98/1 128/62/1
